<svg width="43" height="44" viewBox="0 0 43 44" fill="none" xmlns="http://www.w3.org/2000/svg">
<g id="Input/icon:settings" clip-path="url(#clip0_213_359)">
<circle id="Ellipse 2" cx="21.5" cy="22" r="21.5" fill="#751123"/>
<path id="Vector" d="M21.499 18.4996C20.4383 18.4996 19.4211 18.9211 18.6711 19.6715C17.9211 20.4219 17.4997 21.4397 17.4997 22.5009C17.4997 23.5621 17.9211 24.5799 18.6711 25.3303C19.4211 26.0807 20.4383 26.5022 21.499 26.5022C22.5597 26.5022 23.5769 26.0807 24.3269 25.3303C25.0769 24.5799 25.4983 23.5621 25.4983 22.5009C25.4983 21.4397 25.0769 20.4219 24.3269 19.6715C23.5769 18.9211 22.5597 18.4996 21.499 18.4996ZM19.4994 22.5009C19.4994 21.9703 19.71 21.4614 20.085 21.0862C20.46 20.711 20.9687 20.5002 21.499 20.5002C22.0293 20.5002 22.538 20.711 22.913 21.0862C23.288 21.4614 23.4986 21.9703 23.4986 22.5009C23.4986 23.0315 23.288 23.5404 22.913 23.9156C22.538 24.2908 22.0293 24.5016 21.499 24.5016C20.9687 24.5016 20.46 24.2908 20.085 23.9156C19.71 23.5404 19.4994 23.0315 19.4994 22.5009ZM26.734 15.2945C26.3654 15.3612 25.9853 15.2794 25.6766 15.0669C25.368 14.8544 25.1558 14.5285 25.0863 14.1601L24.5664 11.3272C24.542 11.1888 24.4764 11.061 24.3783 10.9603C24.2803 10.8597 24.1542 10.7909 24.0165 10.763C22.3558 10.4123 20.6402 10.4123 18.9795 10.763C18.8418 10.7909 18.7157 10.8597 18.6177 10.9603C18.5196 11.061 18.454 11.1888 18.4296 11.3272L17.9117 14.1601C17.8738 14.3619 17.7928 14.5531 17.674 14.7205C17.5552 14.8879 17.4016 15.0275 17.2237 15.1298C17.0459 15.2321 16.8479 15.2946 16.6436 15.313C16.4392 15.3315 16.2333 15.3053 16.04 15.2365L13.3225 14.2681C13.1905 14.2222 13.0479 14.2157 12.9123 14.2495C12.7767 14.2832 12.6538 14.3558 12.5586 14.4582C11.4202 15.7129 10.5601 17.1945 10.0351 18.8057C9.99127 18.9389 9.98842 19.0822 10.0269 19.217C10.0654 19.3518 10.1435 19.472 10.2511 19.5619L12.4547 21.4245C12.5146 21.4739 12.5686 21.5279 12.6166 21.5866C12.7371 21.7277 12.8285 21.8913 12.8856 22.0679C12.9427 22.2445 12.9643 22.4306 12.9493 22.6156C12.9342 22.8006 12.8828 22.9808 12.7979 23.1458C12.713 23.3109 12.5964 23.4575 12.4547 23.5773L10.2511 25.4399C10.1435 25.5298 10.0654 25.65 10.0269 25.7848C9.98842 25.9196 9.99127 26.0629 10.0351 26.1961C10.5607 27.8074 11.4215 29.2891 12.5606 30.5436C12.6558 30.646 12.7787 30.7186 12.9143 30.7523C13.0499 30.7861 13.1925 30.7796 13.3245 30.7336L16.044 29.7653C16.2373 29.6957 16.4433 29.6691 16.6479 29.6872C16.8525 29.7053 17.0507 29.7677 17.2288 29.8701C17.4069 29.9725 17.5606 30.1124 17.6792 30.2802C17.7978 30.448 17.8785 30.6396 17.9157 30.8417L18.4316 33.6746C18.4836 33.9547 18.7015 34.1788 18.9815 34.2368C20.6428 34.5877 22.3592 34.5877 24.0205 34.2368C24.1576 34.2086 24.283 34.14 24.3807 34.0398C24.4783 33.9396 24.5437 33.8124 24.5684 33.6746L25.0883 30.8417C25.1262 30.6399 25.2072 30.4487 25.326 30.2813C25.4448 30.1139 25.5984 29.9743 25.7763 29.872C25.9541 29.7697 26.1521 29.7072 26.3564 29.6887C26.5608 29.6703 26.7667 29.6965 26.96 29.7653L29.6775 30.7336C29.9475 30.8297 30.2494 30.7537 30.4414 30.5436C31.5798 29.2889 32.4399 27.8073 32.9649 26.1961C33.0087 26.0629 33.0116 25.9196 32.9731 25.7848C32.9346 25.65 32.8565 25.5298 32.7489 25.4399L30.5453 23.5773C30.3885 23.4452 30.2623 23.2805 30.1758 23.0946C30.0893 22.9086 30.0445 22.706 30.0445 22.5009C30.0445 22.2958 30.0893 22.0932 30.1758 21.9072C30.2623 21.7213 30.3885 21.5566 30.5453 21.4245L32.7489 19.5619C32.8565 19.472 32.9346 19.3518 32.9731 19.217C33.0116 19.0822 33.0087 18.9389 32.9649 18.8057C32.4387 17.1942 31.5773 15.7125 30.4374 14.4582C30.3422 14.3558 30.2193 14.2832 30.0837 14.2495C29.9481 14.2157 29.8055 14.2222 29.6735 14.2681L26.954 15.2365C26.8812 15.2607 26.8071 15.2808 26.732 15.2965M13.4945 16.4569L15.3681 17.1231C15.8343 17.2892 16.331 17.352 16.8239 17.3073C17.3167 17.2625 17.794 17.1113 18.2227 16.864C18.6515 16.6167 19.0214 16.2793 19.3071 15.8749C19.5928 15.4706 19.7873 15.0091 19.8773 14.5222L20.2312 12.5816C21.071 12.4744 21.921 12.4744 22.7608 12.5816L23.1167 14.5222C23.2061 15.0094 23.4002 15.4714 23.6857 15.8761C23.9712 16.2807 24.3413 16.6185 24.7702 16.8659C25.1991 17.1133 25.6767 17.2644 26.1698 17.3088C26.6628 17.3532 27.1597 17.2899 27.6259 17.1231L29.4975 16.4529C30.0094 17.1238 30.4294 17.8467 30.7573 18.6216L29.2496 19.896C28.8707 20.216 28.5663 20.6149 28.3574 21.0648C28.1486 21.5147 28.0404 22.0048 28.0404 22.5009C28.0404 22.997 28.1486 23.4871 28.3574 23.937C28.5663 24.3869 28.8707 24.7857 29.2496 25.1058L30.7593 26.3802C30.432 27.1531 30.0087 27.8818 29.4995 28.5489L27.6259 27.8807C27.1597 27.7146 26.663 27.6518 26.1701 27.6965C25.6773 27.7413 25.2 27.8925 24.7713 28.1398C24.3425 28.3871 23.9726 28.7245 23.6869 29.1288C23.4012 29.5332 23.2067 29.9947 23.1167 30.4816L22.7608 32.4222C21.921 32.5294 21.071 32.5294 20.2312 32.4222L19.8773 30.4816C19.7879 29.9944 19.5938 29.5324 19.3083 29.1277C19.0228 28.723 18.6527 28.3853 18.2238 28.1379C17.7949 27.8905 17.3173 27.7394 16.8242 27.695C16.3312 27.6505 15.8343 27.7139 15.3681 27.8807L13.5005 28.5489C12.9913 27.8818 12.568 27.1531 12.2407 26.3802L13.7484 25.1038C14.1269 24.7837 14.4311 24.385 14.6397 23.9353C14.8484 23.4855 14.9565 22.9957 14.9565 22.4999C14.9565 22.0041 14.8484 21.5143 14.6397 21.0645C14.4311 20.6148 14.1269 20.216 13.7484 19.896L12.2387 18.6216C12.5693 17.8467 12.9892 17.1238 13.4985 16.4529" fill="white"/>
</g>
<defs>
<clipPath id="clip0_213_359">
<rect width="43" height="43" fill="white" transform="translate(0 0.5)"/>
</clipPath>
</defs>
</svg>
