<svg width="95" height="65" viewBox="0 0 95 65" fill="none" xmlns="http://www.w3.org/2000/svg">
<g id="Kitty">
<path d="M31.6968 0L27.209 16.791H25.7403L30.2281 0H31.6968Z" fill="#751123"/>
<path d="M37.0532 16.791L32.5654 0H34.0342L38.5219 16.791H37.0532Z" fill="#751123"/>
<path d="M53.0171 14.6818V16.1884H44.3135V14.6818H53.0171Z" fill="#751123"/>
<path d="M64.7754 0L60.2876 16.791H58.8189L63.3066 0H64.7754Z" fill="#751123"/>
<path d="M70.1318 16.791L65.644 0H67.1127L71.6005 16.791H70.1318Z" fill="#751123"/>
<path d="M0.5 32.0206V30.5415H8.87716V32.0206H0.5ZM0.5 36.0746V34.5954H8.87716V36.0746H0.5Z" fill="#751123"/>
<path d="M18.4256 32.8698C18.4256 31.1441 18.6477 29.5577 19.0919 28.1105C19.5407 26.6588 20.1799 25.3234 21.0094 24.1045H22.4238C22.0974 24.5565 21.7914 25.1134 21.5058 25.7754C21.2248 26.4328 20.9777 27.1564 20.7646 27.9462C20.5516 28.7314 20.3839 29.544 20.2615 30.384C20.1436 31.224 20.0847 32.0526 20.0847 32.8698C20.0847 33.9563 20.1889 35.0588 20.3975 36.1773C20.606 37.2958 20.887 38.3344 21.2406 39.2931C21.5942 40.2518 21.9886 41.0324 22.4238 41.6351H21.0094C20.1799 40.4161 19.5407 39.0831 19.0919 37.6359C18.6477 36.1842 18.4256 34.5954 18.4256 32.8698Z" fill="#751123"/>
<path d="M34.0936 36.2115C33.5451 36.2115 33.0442 36.0769 32.5909 35.8075C32.1376 35.5336 31.775 35.1684 31.503 34.7119C31.2355 34.2553 31.1018 33.7509 31.1018 33.1985C31.1018 32.6415 31.2355 32.1371 31.503 31.6851C31.775 31.2286 32.1376 30.8656 32.5909 30.5963C33.0442 30.3224 33.5451 30.1854 34.0936 30.1854C34.6467 30.1854 35.1476 30.3224 35.5964 30.5963C36.0497 30.8656 36.4101 31.2286 36.6775 31.6851C36.9495 32.1371 37.0855 32.6415 37.0855 33.1985C37.0855 33.7509 36.9495 34.2553 36.6775 34.7119C36.4101 35.1684 36.0497 35.5336 35.5964 35.8075C35.1476 36.0769 34.6467 36.2115 34.0936 36.2115Z" fill="#751123"/>
<path d="M47.5026 38.8959C47.1671 38.8959 46.8792 38.7749 46.639 38.533C46.3987 38.291 46.2786 38.0011 46.2786 37.6633C46.2786 37.3255 46.3987 37.0356 46.639 36.7936C46.8792 36.5517 47.1671 36.4307 47.5026 36.4307C47.838 36.4307 48.1259 36.5517 48.3661 36.7936C48.6064 37.0356 48.7265 37.3255 48.7265 37.6633C48.7265 37.887 48.6698 38.0924 48.5565 38.2796C48.4477 38.4668 48.3004 38.6174 48.1145 38.7316C47.9332 38.8411 47.7292 38.8959 47.5026 38.8959Z" fill="#751123"/>
<path d="M60.9081 36.2115C60.3596 36.2115 59.8586 36.0769 59.4053 35.8075C58.952 35.5336 58.5894 35.1684 58.3174 34.7119C58.0499 34.2553 57.9162 33.7509 57.9162 33.1985C57.9162 32.6415 58.0499 32.1371 58.3174 31.6851C58.5894 31.2286 58.952 30.8656 59.4053 30.5963C59.8586 30.3224 60.3596 30.1854 60.9081 30.1854C61.4611 30.1854 61.962 30.3224 62.4108 30.5963C62.8641 30.8656 63.2245 31.2286 63.4919 31.6851C63.7639 32.1371 63.8999 32.6415 63.8999 33.1985C63.8999 33.7509 63.7639 34.2553 63.4919 34.7119C63.2245 35.1684 62.8641 35.5336 62.4108 35.8075C61.962 36.0769 61.4611 36.2115 60.9081 36.2115Z" fill="#751123"/>
<path d="M76.5744 32.8698C76.5744 34.5954 76.35 36.1842 75.9013 37.6359C75.457 39.0831 74.8201 40.4161 73.9906 41.6351H72.5762C72.9026 41.1831 73.2063 40.6261 73.4874 39.9642C73.773 39.3068 74.0223 38.5855 74.2354 37.8003C74.4484 37.0105 74.6139 36.1956 74.7317 35.3556C74.8541 34.511 74.9153 33.6824 74.9153 32.8698C74.9153 31.7833 74.8111 30.6807 74.6025 29.5623C74.394 28.4438 74.113 27.4052 73.7594 26.4465C73.4058 25.4878 73.0114 24.7071 72.5762 24.1045H73.9906C74.8201 25.3234 75.457 26.6588 75.9013 28.1105C76.35 29.5577 76.5744 31.1441 76.5744 32.8698Z" fill="#751123"/>
<path d="M86.1228 32.0206V30.5415H94.5V32.0206H86.1228ZM86.1228 36.0746V34.5954H94.5V36.0746H86.1228Z" fill="#751123"/>
<path d="M26.3115 48.209L21.8237 65H20.355L24.8427 48.209H26.3115Z" fill="#751123"/>
<path d="M74.7504 65L70.2627 48.209H71.7314L76.2192 65H74.7504Z" fill="#751123"/>
</g>
</svg>
