<svg width="11" height="12" viewBox="0 0 11 12" fill="none" xmlns="http://www.w3.org/2000/svg">
<path id="&#226;&#153;&#161;" d="M4.72 11.752C4.58133 11.4 4.43733 11.0747 4.288 10.776C4.14933 10.4667 3.97333 10.136 3.76 9.78405C3.54667 9.43205 3.28 9.02138 2.96 8.55205C2.64 8.08271 2.23467 7.51205 1.744 6.84005C1.11467 5.97605 0.666667 5.23471 0.4 4.61605C0.133333 3.99738 0 3.39471 0 2.80805C0 2.33871 0.117333 1.91205 0.352 1.52805C0.597333 1.13338 0.917333 0.824047 1.312 0.600047C1.71733 0.36538 2.15467 0.248047 2.624 0.248047C3.12533 0.248047 3.58933 0.376047 4.016 0.632047C4.45333 0.888047 4.81067 1.27738 5.088 1.80005C5.376 1.27738 5.73867 0.888047 6.176 0.632047C6.61333 0.376047 7.08267 0.248047 7.584 0.248047C8.04267 0.248047 8.46933 0.36538 8.864 0.600047C9.26933 0.824047 9.59467 1.13338 9.84 1.52805C10.0853 1.91205 10.208 2.33871 10.208 2.80805C10.208 3.18138 10.1547 3.56538 10.048 3.96005C9.952 4.34405 9.776 4.77071 9.52 5.24005C9.264 5.69871 8.912 6.23738 8.464 6.85605C7.97333 7.53871 7.56267 8.12005 7.232 8.60005C6.90133 9.06938 6.62933 9.48005 6.416 9.83205C6.21333 10.184 6.03733 10.5094 5.888 10.808C5.73867 11.1067 5.6 11.4214 5.472 11.752H4.72ZM5.088 10.36C5.29067 9.95471 5.56267 9.48538 5.904 8.95205C6.256 8.41871 6.66667 7.82671 7.136 7.17605C7.60533 6.52538 7.98933 5.96538 8.288 5.49605C8.58667 5.02671 8.8 4.65338 8.928 4.37605C9.184 3.81071 9.312 3.28805 9.312 2.80805C9.312 2.49871 9.232 2.22138 9.072 1.97605C8.912 1.72005 8.69867 1.51738 8.432 1.36805C8.176 1.21871 7.89333 1.14405 7.584 1.14405C7.12533 1.14405 6.70933 1.33605 6.336 1.72005C5.96267 2.09338 5.68533 2.61071 5.504 3.27205H4.688C4.48533 2.54671 4.19733 2.01338 3.824 1.67205C3.46133 1.32005 3.06133 1.14405 2.624 1.14405C2.32533 1.14405 2.04267 1.21871 1.776 1.36805C1.50933 1.51738 1.296 1.72005 1.136 1.97605C0.976 2.22138 0.896 2.49871 0.896 2.80805C0.896 3.25605 1.01867 3.76805 1.264 4.34405C1.49867 4.88805 2.08533 5.80005 3.024 7.08005C3.49333 7.69871 3.89867 8.28538 4.24 8.84005C4.58133 9.38405 4.864 9.89071 5.088 10.36Z" fill="#A6E447"/>
</svg>
