<svg width="43" height="44" viewBox="0 0 43 44" fill="none" xmlns="http://www.w3.org/2000/svg">
<g id="Input/icon:security" clip-path="url(#clip0_213_356)">
<circle id="Ellipse 3" cx="21.5" cy="22" r="21.5" fill="#751123"/>
<path id="Vector" d="M21.5 34.5L21.23 34.3948C18.2151 33.2565 15.6195 31.2222 13.7911 28.5644C11.9627 25.9066 10.9889 22.7523 11.0001 19.5244V14.5426L21.5 10.5L31.9999 14.5426V19.5244C32.0096 22.7511 31.0351 25.9036 29.2068 28.56C27.3785 31.2163 24.7837 33.2495 21.77 34.3873L21.5 34.5ZM13.4044 16.5043V19.5244C13.3966 22.3973 14.2504 25.2063 15.8552 27.5871C17.4599 29.968 18.8373 30.8861 21.5 31.9521C24.1628 30.8861 25.5401 29.968 27.1449 27.5871C28.7496 25.2063 29.6034 22.3973 29.5956 19.5244V16.5043L21.5 13.2293L13.4044 16.5043Z" fill="white"/>
</g>
<defs>
<clipPath id="clip0_213_356">
<rect width="43" height="43" fill="white" transform="translate(0 0.5)"/>
</clipPath>
</defs>
</svg>
