<svg xmlns="http://www.w3.org/2000/svg" width="118" height="44" viewBox="0 0 118 44" fill="none">
    <g clip-path="url(#clip0_208_282)">
        <path d="M99.7109 34.646C100.331 34.3822 100.756 33.4259 100.756 32.2718V21.2251C100.756 20.038 100.331 19.0817 99.7109 18.8509V18.7519H105.688V32.2718C105.688 33.4259 106.112 34.3822 106.733 34.646V34.712H99.7109V34.646Z" fill="#FF3157"/>
        <path d="M109.073 31.7772C109.694 31.5134 110.118 30.5571 110.118 29.4029V18.3562C110.118 17.1691 109.694 16.2128 109.073 15.982V15.8831H115.05V29.4029C115.05 30.5571 115.475 31.5134 116.095 31.7772V31.8431H109.073V31.7772Z" fill="#FF3157"/>
        <path d="M103.227 4.66051C103.369 4.66051 103.477 4.75943 103.51 4.92431C103.554 5.1991 103.586 5.4739 103.641 5.74869C103.826 6.79291 104.022 7.83713 104.381 8.84837C104.533 9.27705 104.795 9.58481 105.187 9.78267C105.862 10.1124 106.558 10.3542 107.266 10.5741C107.636 10.684 108.006 10.7829 108.376 10.8928C108.551 10.9478 108.638 11.0467 108.638 11.2006C108.638 11.3545 108.551 11.4534 108.376 11.4974C107.397 11.7612 106.417 12.036 105.481 12.4647C105.263 12.5636 105.067 12.6845 104.86 12.8054C104.664 12.9263 104.555 13.1132 104.468 13.322C104.229 13.8716 104.076 14.4432 103.956 15.0257C103.793 15.8171 103.663 16.6195 103.521 17.4219C103.488 17.5978 103.39 17.7077 103.238 17.7077C103.075 17.7077 102.988 17.5978 102.944 17.4C102.824 16.6965 102.704 15.993 102.563 15.2895C102.432 14.641 102.269 14.0035 102.03 13.399C101.899 13.0692 101.703 12.8384 101.409 12.6735C100.843 12.3547 100.233 12.1349 99.6236 11.9371C99.1119 11.7722 98.6002 11.6403 98.0886 11.4864C97.9035 11.4314 97.8164 11.3435 97.8164 11.1896C97.8164 11.0247 97.9035 10.9258 98.0886 10.8818C98.9704 10.651 99.8413 10.3982 100.69 10.0465C100.974 9.92556 101.257 9.77167 101.529 9.62878C101.725 9.51886 101.866 9.343 101.964 9.13415C102.193 8.62853 102.345 8.08994 102.465 7.55134C102.639 6.69398 102.792 5.83663 102.944 4.99026C102.977 4.79241 103.075 4.68249 103.238 4.68249L103.227 4.66051Z" fill="#FF3157"/>
        <path d="M112.579 0C112.72 0 112.829 0.0989258 112.862 0.263802C112.905 0.538596 112.938 0.81339 112.992 1.08818C113.177 2.1324 113.373 3.17662 113.733 4.18786C113.885 4.61654 114.146 4.92431 114.538 5.12216C115.213 5.45191 115.91 5.69373 116.618 5.91356C116.988 6.02348 117.358 6.12241 117.728 6.23233C117.902 6.28728 117.989 6.38621 117.989 6.54009C117.989 6.69398 117.902 6.7929 117.728 6.83687C116.748 7.10067 115.768 7.37547 114.832 7.80415C114.614 7.90307 114.418 8.02398 114.212 8.14489C114.016 8.2658 113.907 8.45266 113.82 8.6615C113.58 9.21109 113.428 9.78266 113.308 10.3652C113.145 11.1566 113.014 11.959 112.873 12.7614C112.84 12.9373 112.742 13.0472 112.589 13.0472C112.426 13.0472 112.339 12.9373 112.296 12.7394C112.176 12.036 112.056 11.3325 111.915 10.629C111.784 9.98051 111.621 9.34299 111.381 8.73845C111.25 8.40869 111.054 8.17787 110.761 8.01299C110.194 7.69423 109.585 7.47439 108.975 7.27654C108.463 7.11167 107.952 6.97976 107.44 6.82588C107.255 6.77092 107.168 6.68299 107.168 6.5291C107.168 6.36423 107.255 6.2653 107.44 6.22133C108.322 5.99051 109.193 5.7377 110.042 5.38596C110.325 5.26505 110.608 5.11117 110.88 4.96827C111.076 4.85836 111.218 4.68249 111.316 4.47364C111.544 3.96802 111.697 3.42943 111.817 2.89083C111.991 2.03347 112.143 1.17612 112.296 0.329753C112.328 0.109918 112.426 0 112.579 0Z" fill="#FF3157"/>
        <path d="M0.68613 13.5089C0.68613 9.48588 3.7235 6.68298 8.98173 6.68298C14.5992 6.68298 17.31 9.88159 17.8325 11.9261C18.6164 15.1906 15.1327 17.2131 13.761 11.6073C13.4344 10.3213 11.5945 8.34274 9.01439 8.34274C6.2383 8.34274 5.19319 9.51886 5.19319 11.3655C5.19319 17.8946 18.2898 16.8394 18.2898 24.8194C18.2898 29.0402 14.6319 31.8431 9.17769 31.8431C3.33158 31.8431 0.620811 28.6115 0.0982531 26.6C-0.718243 23.3355 3.88679 22.4122 5.25851 28.018C5.58511 29.271 6.30362 30.1834 9.27567 30.1834C11.9864 30.1834 13.7827 29.6338 13.7827 27.1606C13.7827 20.4996 0.68613 21.9176 0.68613 13.5089Z" fill="#FF3157"/>
        <path d="M20.3584 43.934C20.9789 43.6702 21.4035 42.2963 21.4035 41.1421V21.2251C21.4035 20.038 20.9789 19.0817 20.3584 18.8509V18.7519H26.3351V22.4781C26.9883 20.4337 28.4907 18.4222 31.7893 18.4222C36.0351 18.4222 38.8765 21.7527 38.8765 26.666C38.8765 31.5793 36.1984 35.1736 31.0708 35.1736C29.1766 35.1736 27.5762 34.679 26.3351 33.7557V41.1421C26.3351 42.2963 26.7597 43.6702 27.3803 43.934V44H20.3584V43.934ZM29.3399 33.0852C32.2792 33.0852 33.9449 30.623 33.9449 25.8746C33.9449 21.9835 32.8345 20.4447 30.5483 20.4447C27.9681 20.4447 26.3351 22.643 26.3351 26.1714V31.8651C27.2496 32.5906 28.2621 33.0852 29.3399 33.0852Z" fill="#FF3157"/>
        <path d="M58.9948 34.712H53.0181V31.0187C52.3322 33.1291 50.7319 35.1736 47.172 35.1736C43.612 35.1736 41.1299 33.2281 41.1299 30.4582C41.1299 27.2596 44.4285 25.1491 49.1315 25.1491C50.6012 25.1491 51.9403 25.347 53.0181 25.8086C53.0181 21.9505 52.5935 18.9828 49.9807 18.9828C47.8252 18.9828 47.1066 20.9613 46.8454 21.9176C45.8329 25.8746 42.1423 24.8194 42.5996 22.1814C42.9588 20.1369 45.441 18.4222 50.1113 18.4222C56.9046 18.4222 57.9497 22.0824 57.9497 26.9957V32.2718C57.9497 33.4259 58.3743 34.3822 58.9948 34.646V34.712ZM53.0181 27.5343C52.2342 27.1386 51.3524 26.9408 50.5359 26.9408C47.9231 26.9408 45.0055 27.8531 45.0055 30.5241C45.0055 32.6345 47.2046 33.1511 48.9356 33.1511C51.3851 33.1511 53.0181 30.9528 53.0181 27.4244V27.5343Z" fill="#FF3157"/>
        <path d="M61.0527 34.646C61.6733 34.3822 62.0978 33.4259 62.0978 32.2718V21.2251C62.0978 20.038 61.6733 19.0817 61.0527 18.8509V18.7519H67.0295V22.2143C67.7807 19.8401 69.4463 18.4222 71.8305 18.4222C74.2147 18.4222 75.9783 19.9061 76.2396 21.8516C76.7295 25.1821 72.451 25.8746 71.8958 21.6867C71.7978 20.9613 71.4386 20.4447 70.1322 20.4447C68.4665 20.4447 67.0295 23.0827 67.0295 26.9738V32.2718C67.0295 33.4259 67.4541 34.3822 68.0746 34.646V34.712H61.0527V34.646Z" fill="#FF3157"/>
        <path d="M78.0361 34.646C78.6567 34.3822 79.0812 33.4259 79.0812 32.2718V12.3547C79.0812 11.1676 78.6567 10.2113 78.0361 9.98052V9.91457H84.0129V25.9955L90.7408 20.6865C91.9492 19.7302 92.6351 19.3785 91.59 18.8509V18.7519H96.195V18.8509C93.9741 19.5433 92.5698 20.9943 91.5573 21.7857L89.663 23.2696L94.562 32.2718C95.0846 33.2281 96.0317 34.3822 96.6849 34.646V34.712H89.0425V34.646C89.6957 34.3822 89.5651 33.1951 89.0425 32.2718L85.8418 26.3363L84.0129 27.7872V32.2718C84.0129 33.4259 84.4375 34.3822 85.058 34.646V34.712H78.0361V34.646Z" fill="#FF3157"/>
    </g>
    <defs>
        <clipPath id="clip0_208_282">
            <rect width="118" height="44" fill="white"/>
        </clipPath>
    </defs>
</svg>