<svg xmlns="http://www.w3.org/2000/svg" width="32" height="32" viewBox="0 0 32 32" fill="none">
    <path d="M16 22.6667C16.3778 22.6667 16.6947 22.5387 16.9507 22.2827C17.2067 22.0267 17.3342 21.7102 17.3333 21.3333C17.3324 20.9564 17.2044 20.64 16.9493 20.384C16.6942 20.128 16.3778 20 16 20C15.6222 20 15.3058 20.128 15.0507 20.384C14.7956 20.64 14.6676 20.9564 14.6667 21.3333C14.6658 21.7102 14.7938 22.0271 15.0507 22.284C15.3076 22.5409 15.624 22.6684 16 22.6667ZM14.6667 17.3333H17.3333V9.33333H14.6667V17.3333ZM11 28L4 21V11L11 4H21L28 11V21L21 28H11ZM12.1333 25.3333H19.8667L25.3333 19.8667V12.1333L19.8667 6.66667H12.1333L6.66667 12.1333V19.8667L12.1333 25.3333Z" fill="#BF0B2C"/>
</svg>