<svg xmlns="http://www.w3.org/2000/svg" width="36" height="36" viewBox="0 0 36 36" fill="none">
    <path d="M28.834 19.715L20.2033 28.1292C19.6311 28.6868 18.8551 29 18.046 29C17.2369 29 16.4609 28.6868 15.8887 28.1292L7.25797 19.7165C6.54452 19.0271 5.97778 18.2072 5.5903 17.3037C5.20282 16.4003 5.00222 15.4312 5.00002 14.452C4.99782 13.4727 5.19406 12.5028 5.57748 11.5977C5.9609 10.6926 6.52395 9.87026 7.23429 9.17786C7.94464 8.48545 8.7883 7.93663 9.71683 7.5629C10.6454 7.18916 11.6405 6.99787 12.6451 7.00002C13.6496 7.00216 14.6439 7.19769 15.5707 7.57539C16.4976 7.95309 17.3388 8.50551 18.046 9.20093C19.4825 7.83555 21.4131 7.07681 23.4194 7.08906C25.4258 7.10132 27.3465 7.88358 28.7653 9.2664C30.1842 10.6492 30.987 12.5212 30.9998 14.4769C31.0127 16.4326 30.2346 18.3145 28.834 19.715Z" stroke="white" stroke-width="2" stroke-linecap="round" stroke-linejoin="round"/>
</svg>