<svg xmlns="http://www.w3.org/2000/svg" width="34" height="26" viewBox="0 0 34 26" fill="none">
    <path d="M21.5242 13C21.5242 14.1998 21.0476 15.3504 20.1992 16.1988C19.3508 17.0472 18.2002 17.5238 17.0004 17.5238C15.8006 17.5238 14.6499 17.0472 13.8016 16.1988C12.9532 15.3504 12.4766 14.1998 12.4766 13C12.4766 11.8002 12.9532 10.6495 13.8016 9.80116C14.6499 8.95278 15.8006 8.47617 17.0004 8.47617C18.2002 8.47617 19.3508 8.95278 20.1992 9.80116C21.0476 10.6495 21.5242 11.8002 21.5242 13Z" stroke="white" stroke-width="2" stroke-linecap="round" stroke-linejoin="round"/>
    <path d="M1.16699 13C3.70033 6.51307 9.61566 1.91666 17.0003 1.91666C24.385 1.91666 30.3003 6.51307 32.8337 13C30.3003 19.4869 24.385 24.0833 17.0003 24.0833C9.61566 24.0833 3.70033 19.4869 1.16699 13Z" stroke="white" stroke-width="2" stroke-linecap="round" stroke-linejoin="round"/>
</svg>