<svg width="30" height="30" viewBox="0 0 30 30" fill="none" xmlns="http://www.w3.org/2000/svg">
<g id="icon-park-outline:link">
<path id="Vector" d="M15.4415 5.97801L6.16091 15.2593C5.10619 16.3141 4.51367 17.7447 4.51367 19.2364C4.51367 20.7281 5.10619 22.1588 6.16091 23.2136C6.68324 23.736 7.30334 24.1503 7.9858 24.433C8.66826 24.7157 9.39972 24.8612 10.1384 24.8612C10.8771 24.8612 11.6086 24.7157 12.291 24.433C12.9735 24.1503 13.5936 23.736 14.1159 23.2136L25.1647 12.1655C25.5129 11.8173 25.7892 11.4039 25.9777 10.9488C26.1662 10.4938 26.2632 10.0061 26.2632 9.51363C26.2632 9.02112 26.1662 8.53344 25.9777 8.07842C25.7892 7.62341 25.5129 7.20999 25.1647 6.86176C24.8164 6.51347 24.403 6.23719 23.948 6.0487C23.493 5.8602 23.0053 5.76318 22.5128 5.76318C22.0203 5.76318 21.5326 5.8602 21.0776 6.0487C20.6226 6.23719 20.2091 6.51347 19.8609 6.86176L8.81278 17.9105C8.63864 18.0846 8.5005 18.2913 8.40625 18.5188C8.31201 18.7463 8.2635 18.9902 8.2635 19.2364C8.2635 19.4827 8.31201 19.7265 8.40625 19.954C8.5005 20.1816 8.63864 20.3883 8.81278 20.5624C9.1644 20.9139 9.64123 21.1114 10.1384 21.1114C10.6356 21.1114 11.1124 20.9139 11.464 20.5624L20.7453 11.2811" stroke="white" stroke-width="2" stroke-linecap="round" stroke-linejoin="round"/>
</g>
</svg>
