<svg width="30" height="30" viewBox="0 0 30 30" fill="none" xmlns="http://www.w3.org/2000/svg">
<g id="fluent:gif-16-regular">
<path id="Vector" d="M9.4725 12.5737C10.3744 12.48 11.0719 12.6431 11.3212 12.7669C11.4318 12.8265 11.5531 12.8633 11.6781 12.8751C11.8031 12.8869 11.9292 12.8734 12.0489 12.8356C12.1686 12.7977 12.2795 12.7362 12.375 12.6547C12.4705 12.5731 12.5486 12.4733 12.6048 12.361C12.6609 12.2487 12.6939 12.1262 12.7019 12.0009C12.7098 11.8756 12.6925 11.75 12.6509 11.6315C12.6094 11.5131 12.5445 11.4041 12.46 11.3112C12.3756 11.2183 12.2734 11.1433 12.1594 11.0906C11.5013 10.7606 10.4194 10.59 9.2775 10.71C7.4775 10.8975 5.625 12.4612 5.625 15.0169C5.625 17.6137 7.60125 19.3294 9.9375 19.3294C11.025 19.3294 12 18.8194 12.5569 18.2925C13.0481 17.8275 13.125 17.2106 13.125 16.8244V15.0169C13.125 14.7682 13.0262 14.5298 12.8504 14.354C12.6746 14.1781 12.4361 14.0794 12.1875 14.0794H10.6744C10.4257 14.0794 10.1873 14.1781 10.0115 14.354C9.83565 14.5298 9.73687 14.7682 9.73687 15.0169C9.73687 15.2655 9.83565 15.504 10.0115 15.6798C10.1873 15.8556 10.4257 15.9544 10.6744 15.9544H11.25V16.8244C11.2502 16.869 11.2465 16.9135 11.2387 16.9575C10.8734 17.265 10.4149 17.4401 9.9375 17.4544C8.56688 17.4544 7.5 16.5075 7.5 15.0169C7.5 13.4831 8.56313 12.6694 9.4725 12.5737ZM16.875 11.6438C16.875 11.3951 16.7762 11.1567 16.6004 10.9808C16.4246 10.805 16.1861 10.7063 15.9375 10.7063C15.6889 10.7063 15.4504 10.805 15.2746 10.9808C15.0988 11.1567 15 11.3951 15 11.6438V18.3938C15 18.6424 15.0988 18.8808 15.2746 19.0567C15.4504 19.2325 15.6889 19.3313 15.9375 19.3313C16.1861 19.3313 16.4246 19.2325 16.6004 19.0567C16.7762 18.8808 16.875 18.6424 16.875 18.3938V11.6438ZM19.6875 10.7063C19.4389 10.7063 19.2004 10.805 19.0246 10.9808C18.8488 11.1567 18.75 11.3951 18.75 11.6438V18.3938C18.75 18.6424 18.8488 18.8808 19.0246 19.0567C19.2004 19.2325 19.4389 19.3313 19.6875 19.3313C19.9361 19.3313 20.1746 19.2325 20.3504 19.0567C20.5262 18.8808 20.625 18.6424 20.625 18.3938V15.9487L22.5056 15.9375C22.7543 15.936 22.9921 15.8358 23.1669 15.6589C23.3417 15.4821 23.439 15.243 23.4375 14.9944C23.436 14.7457 23.3358 14.5079 23.1589 14.3331C22.9821 14.1583 22.743 14.061 22.4944 14.0625L20.625 14.0738V12.5794H23.4375C23.6861 12.5794 23.9246 12.4806 24.1004 12.3048C24.2762 12.129 24.375 11.8905 24.375 11.6419C24.375 11.3932 24.2762 11.1548 24.1004 10.979C23.9246 10.8031 23.6861 10.7044 23.4375 10.7044L19.6875 10.7063ZM6.5625 3.75C5.3193 3.75 4.12701 4.24386 3.24794 5.12294C2.36886 6.00201 1.875 7.1943 1.875 8.4375V21.5625C1.875 22.8057 2.36886 23.998 3.24794 24.8771C4.12701 25.7561 5.3193 26.25 6.5625 26.25H23.4375C24.6807 26.25 25.873 25.7561 26.7521 24.8771C27.6311 23.998 28.125 22.8057 28.125 21.5625V8.4375C28.125 7.1943 27.6311 6.00201 26.7521 5.12294C25.873 4.24386 24.6807 3.75 23.4375 3.75H6.5625ZM3.75 8.4375C3.75 7.69158 4.04632 6.97621 4.57376 6.44876C5.10121 5.92132 5.81658 5.625 6.5625 5.625H23.4375C24.1834 5.625 24.8988 5.92132 25.4262 6.44876C25.9537 6.97621 26.25 7.69158 26.25 8.4375V21.5625C26.25 22.3084 25.9537 23.0238 25.4262 23.5512C24.8988 24.0787 24.1834 24.375 23.4375 24.375H6.5625C5.81658 24.375 5.10121 24.0787 4.57376 23.5512C4.04632 23.0238 3.75 22.3084 3.75 21.5625V8.4375Z" fill="white" stroke="white" stroke-width="0.4"/>
</g>
</svg>
