<svg width="30" height="31" viewBox="0 0 30 31" fill="none" xmlns="http://www.w3.org/2000/svg">
<g id="Group">
<path id="Vector" d="M29 15.5C29 17.3385 28.6379 19.159 27.9343 20.8576C27.2307 22.5561 26.1995 24.0995 24.8995 25.3995C23.5995 26.6995 22.0561 27.7307 20.3576 28.4343C18.659 29.1379 16.8385 29.5 15 29.5C13.1615 29.5 11.341 29.1379 9.64243 28.4343C7.94387 27.7307 6.40053 26.6995 5.1005 25.3995C3.80048 24.0995 2.76925 22.5561 2.06569 20.8576C1.36212 19.159 1 17.3385 1 15.5C1 11.787 2.475 8.22601 5.1005 5.60051C7.72601 2.975 11.287 1.5 15 1.5C18.713 1.5 22.274 2.975 24.8995 5.60051C27.525 8.22601 29 11.787 29 15.5Z" stroke="white" stroke-width="2" stroke-linecap="round" stroke-linejoin="round"/>
<path id="Vector_2" d="M22.7782 27.1666C22.2851 17.5424 7.71577 17.5424 7.22266 27.1666M18.8893 11.2221C18.8893 12.2535 18.4796 13.2427 17.7503 13.972C17.021 14.7013 16.0318 15.111 15.0004 15.111C13.969 15.111 12.9799 14.7013 12.2506 13.972C11.5213 13.2427 11.1115 12.2535 11.1115 11.2221C11.1115 10.1907 11.5213 9.20159 12.2506 8.47228C12.9799 7.74297 13.969 7.33325 15.0004 7.33325C16.0318 7.33325 17.021 7.74297 17.7503 8.47228C18.4796 9.20159 18.8893 10.1907 18.8893 11.2221Z" stroke="white" stroke-width="2" stroke-linecap="round" stroke-linejoin="round"/>
</g>
</svg>
