<svg width="30" height="31" viewBox="0 0 30 31" fill="none" xmlns="http://www.w3.org/2000/svg">
<g id="Group">
<path id="Vector" d="M15 29.5C22.7322 29.5 29 23.2322 29 15.5C29 7.7678 22.7322 1.5 15 1.5C7.2678 1.5 1 7.7678 1 15.5C1 23.2322 7.2678 29.5 15 29.5Z" stroke="white" stroke-width="2" stroke-linejoin="round"/>
<path id="Vector_2" d="M8.00039 17.5999C9.16019 17.5999 10.1004 16.6597 10.1004 15.4999C10.1004 14.3401 9.16019 13.3999 8.00039 13.3999C6.84059 13.3999 5.90039 14.3401 5.90039 15.4999C5.90039 16.6597 6.84059 17.5999 8.00039 17.5999Z" fill="white"/>
<path id="Vector_3" d="M15.0004 17.5999C16.1602 17.5999 17.1004 16.6597 17.1004 15.4999C17.1004 14.3401 16.1602 13.3999 15.0004 13.3999C13.8406 13.3999 12.9004 14.3401 12.9004 15.4999C12.9004 16.6597 13.8406 17.5999 15.0004 17.5999Z" fill="white"/>
<path id="Vector_4" d="M22.0004 17.5999C23.1602 17.5999 24.1004 16.6597 24.1004 15.4999C24.1004 14.3401 23.1602 13.3999 22.0004 13.3999C20.8406 13.3999 19.9004 14.3401 19.9004 15.4999C19.9004 16.6597 20.8406 17.5999 22.0004 17.5999Z" fill="white"/>
</g>
</svg>
