<svg xmlns="http://www.w3.org/2000/svg" width="26" height="27" viewBox="0 0 26 27" fill="none">
    <path d="M8.19863 2.66675H16.9346C20.2626 2.66675 22.9666 5.37075 22.9666 8.69875V17.4347C22.9666 19.0345 22.3311 20.5688 21.1999 21.7C20.0687 22.8312 18.5344 23.4667 16.9346 23.4667H8.19863C4.87063 23.4667 2.16663 20.7627 2.16663 17.4347V8.69875C2.16663 7.09896 2.80214 5.5647 3.93336 4.43348C5.06458 3.30226 6.59884 2.66675 8.19863 2.66675ZM7.99063 4.74675C6.99765 4.74675 6.04535 5.1412 5.34322 5.84334C4.64108 6.54548 4.24663 7.49778 4.24663 8.49075V17.6427C4.24663 19.7123 5.92103 21.3867 7.99063 21.3867H17.1426C18.1356 21.3867 19.0879 20.9923 19.79 20.2902C20.4922 19.588 20.8866 18.6357 20.8866 17.6427V8.49075C20.8866 6.42115 19.2122 4.74675 17.1426 4.74675H7.99063ZM18.0266 6.30675C18.3714 6.30675 18.7021 6.44371 18.9459 6.68751C19.1897 6.93131 19.3266 7.26197 19.3266 7.60675C19.3266 7.95153 19.1897 8.28219 18.9459 8.52599C18.7021 8.76978 18.3714 8.90675 18.0266 8.90675C17.6818 8.90675 17.3512 8.76978 17.1074 8.52599C16.8636 8.28219 16.7266 7.95153 16.7266 7.60675C16.7266 7.26197 16.8636 6.93131 17.1074 6.68751C17.3512 6.44371 17.6818 6.30675 18.0266 6.30675ZM12.5666 7.86675C13.9458 7.86675 15.2684 8.4146 16.2436 9.38979C17.2188 10.365 17.7666 11.6876 17.7666 13.0667C17.7666 14.4459 17.2188 15.7685 16.2436 16.7437C15.2684 17.7189 13.9458 18.2667 12.5666 18.2667C11.1875 18.2667 9.86486 17.7189 8.88967 16.7437C7.91448 15.7685 7.36663 14.4459 7.36663 13.0667C7.36663 11.6876 7.91448 10.365 8.88967 9.38979C9.86486 8.4146 11.1875 7.86675 12.5666 7.86675ZM12.5666 9.94675C11.7392 9.94675 10.9456 10.2755 10.3605 10.8606C9.77534 11.4457 9.44663 12.2393 9.44663 13.0667C9.44663 13.8942 9.77534 14.6878 10.3605 15.2729C10.9456 15.858 11.7392 16.1867 12.5666 16.1867C13.3941 16.1867 14.1877 15.858 14.7728 15.2729C15.3579 14.6878 15.6866 13.8942 15.6866 13.0667C15.6866 12.2393 15.3579 11.4457 14.7728 10.8606C14.1877 10.2755 13.3941 9.94675 12.5666 9.94675Z" fill="#751123"/>
</svg>