<svg xmlns="http://www.w3.org/2000/svg" width="118" height="44" viewBox="0 0 118 44" fill="none">
    <g clip-path="url(#clip0_473_622)">
        <path d="M99.7105 34.646C100.331 34.3822 100.756 33.426 100.756 32.2718V21.2251C100.756 20.038 100.331 19.0817 99.7105 18.8509V18.752H105.687V32.2718C105.687 33.426 106.112 34.3822 106.732 34.646V34.712H99.7105V34.646Z" fill="#FF3157"/>
        <path d="M109.073 31.7771C109.694 31.5133 110.118 30.5571 110.118 29.4029V18.3562C110.118 17.1691 109.694 16.2128 109.073 15.982V15.8831H115.05V29.4029C115.05 30.5571 115.474 31.5133 116.095 31.7771V31.8431H109.073V31.7771Z" fill="#FF3157"/>
        <path d="M103.227 4.66052C103.368 4.66052 103.477 4.75945 103.51 4.92432C103.553 5.19912 103.586 5.47391 103.641 5.74871C103.826 6.79292 104.022 7.83714 104.381 8.84838C104.533 9.27706 104.795 9.58483 105.186 9.78268C105.861 10.1124 106.558 10.3543 107.266 10.5741C107.636 10.684 108.006 10.7829 108.376 10.8928C108.55 10.9478 108.638 11.0467 108.638 11.2006C108.638 11.3545 108.55 11.4534 108.376 11.4974C107.396 11.7612 106.417 12.036 105.48 12.4647C105.263 12.5636 105.067 12.6845 104.86 12.8054C104.664 12.9263 104.555 13.1132 104.468 13.322C104.228 13.8716 104.076 14.4432 103.956 15.0257C103.793 15.8172 103.662 16.6196 103.521 17.422C103.488 17.5978 103.39 17.7077 103.238 17.7077C103.074 17.7077 102.987 17.5978 102.944 17.4C102.824 16.6965 102.704 15.993 102.563 15.2896C102.432 14.641 102.269 14.0035 102.029 13.399C101.899 13.0692 101.703 12.8384 101.409 12.6735C100.843 12.3548 100.233 12.1349 99.6234 11.9371C99.1117 11.7722 98.6001 11.6403 98.0884 11.4864C97.9033 11.4314 97.8162 11.3435 97.8162 11.1896C97.8162 11.0248 97.9033 10.9258 98.0884 10.8819C98.9702 10.651 99.8411 10.3982 100.69 10.0465C100.973 9.92557 101.256 9.77169 101.529 9.6288C101.725 9.51888 101.866 9.34301 101.964 9.13417C102.193 8.62855 102.345 8.08995 102.465 7.55135C102.639 6.694 102.791 5.83664 102.944 4.99028C102.976 4.79242 103.074 4.68251 103.238 4.68251L103.227 4.66052Z" fill="#FF3157"/>
        <path d="M112.578 0C112.72 0 112.829 0.0989258 112.862 0.263802C112.905 0.538596 112.938 0.81339 112.992 1.08818C113.177 2.1324 113.373 3.17662 113.732 4.18786C113.885 4.61654 114.146 4.92431 114.538 5.12216C115.213 5.45191 115.91 5.69373 116.617 5.91356C116.988 6.02348 117.358 6.12241 117.728 6.23233C117.902 6.28728 117.989 6.38621 117.989 6.54009C117.989 6.69398 117.902 6.7929 117.728 6.83687C116.748 7.10067 115.768 7.37547 114.832 7.80415C114.614 7.90307 114.418 8.02398 114.211 8.14489C114.015 8.2658 113.907 8.45266 113.82 8.6615C113.58 9.21109 113.428 9.78266 113.308 10.3652C113.145 11.1566 113.014 11.959 112.872 12.7614C112.84 12.9373 112.742 13.0472 112.589 13.0472C112.426 13.0472 112.339 12.9373 112.295 12.7394C112.176 12.036 112.056 11.3325 111.914 10.629C111.784 9.98051 111.62 9.34299 111.381 8.73845C111.25 8.40869 111.054 8.17787 110.76 8.01299C110.194 7.69423 109.585 7.47439 108.975 7.27654C108.463 7.11167 107.952 6.97976 107.44 6.82588C107.255 6.77092 107.168 6.68299 107.168 6.5291C107.168 6.36423 107.255 6.2653 107.44 6.22133C108.322 5.99051 109.193 5.7377 110.042 5.38596C110.325 5.26505 110.608 5.11117 110.88 4.96827C111.076 4.85836 111.218 4.68249 111.316 4.47364C111.544 3.96802 111.697 3.42943 111.816 2.89083C111.991 2.03347 112.143 1.17612 112.295 0.329753C112.328 0.109918 112.426 0 112.578 0Z" fill="#FF3157"/>
        <path d="M0.685856 13.5089C0.685856 9.48588 3.72322 6.68298 8.98145 6.68298C14.5989 6.68298 17.3097 9.88159 17.8323 11.9261C18.6161 15.1906 15.1324 17.2131 13.7607 11.6073C13.4341 10.3213 11.5942 8.34274 9.01411 8.34274C6.23803 8.34274 5.19291 9.51886 5.19291 11.3655C5.19291 17.8946 18.2895 16.8394 18.2895 24.8194C18.2895 29.0402 14.6316 31.8431 9.17741 31.8431C3.3313 31.8431 0.620536 28.6115 0.0979785 26.6C-0.718517 23.3355 3.88652 22.4122 5.25823 28.018C5.58483 29.271 6.30335 30.1834 9.27539 30.1834C11.9862 30.1834 13.7825 29.6338 13.7825 27.1606C13.7825 20.4996 0.685856 21.9176 0.685856 13.5089Z" fill="#FF3157"/>
        <path d="M20.358 43.9341C20.9785 43.6703 21.4031 42.2963 21.4031 41.1422V21.2251C21.4031 20.038 20.9785 19.0817 20.358 18.8509V18.752H26.3347V22.4782C26.9879 20.4337 28.4903 18.4222 31.7889 18.4222C36.0347 18.4222 38.8761 21.7527 38.8761 26.6661C38.8761 31.5794 36.198 35.1737 31.0704 35.1737C29.1761 35.1737 27.5758 34.679 26.3347 33.7557V41.1422C26.3347 42.2963 26.7593 43.6703 27.3798 43.9341V44.0001H20.358V43.9341ZM29.3394 33.0852C32.2788 33.0852 33.9445 30.6231 33.9445 25.8747C33.9445 21.9836 32.834 20.4447 30.5478 20.4447C27.9677 20.4447 26.3347 22.6431 26.3347 26.1714V31.8652C27.2492 32.5906 28.2617 33.0852 29.3394 33.0852Z" fill="#FF3157"/>
        <path d="M58.9945 34.712H53.0178V31.0188C52.3319 33.1292 50.7316 35.1737 47.1717 35.1737C43.6118 35.1737 41.1296 33.2281 41.1296 30.4582C41.1296 27.2596 44.4283 25.1492 49.1313 25.1492C50.601 25.1492 51.94 25.347 53.0178 25.8087C53.0178 21.9506 52.5932 18.9828 49.9804 18.9828C47.8249 18.9828 47.1064 20.9613 46.8451 21.9176C45.8326 25.8747 42.1421 24.8194 42.5993 22.1814C42.9586 20.137 45.4407 18.4222 50.1111 18.4222C56.9043 18.4222 57.9494 22.0825 57.9494 26.9958V32.2719C57.9494 33.426 58.374 34.3823 58.9945 34.6461V34.712ZM53.0178 27.5344C52.234 27.1387 51.3521 26.9409 50.5356 26.9409C47.9229 26.9409 45.0052 27.8532 45.0052 30.5242C45.0052 32.6346 47.2043 33.1512 48.9353 33.1512C51.3848 33.1512 53.0178 30.9528 53.0178 27.4245V27.5344Z" fill="#FF3157"/>
        <path d="M61.0521 34.6461C61.6727 34.3823 62.0972 33.426 62.0972 32.2719V21.2251C62.0972 20.038 61.6727 19.0817 61.0521 18.8509V18.752H67.0289V22.2144C67.78 19.8402 69.4457 18.4222 71.8299 18.4222C74.214 18.4222 75.9777 19.9061 76.2389 21.8517C76.7288 25.1822 72.4504 25.8747 71.8952 21.6868C71.7972 20.9613 71.4379 20.4447 70.1316 20.4447C68.4659 20.4447 67.0289 23.0827 67.0289 26.9738V32.2719C67.0289 33.426 67.4534 34.3823 68.074 34.6461V34.712H61.0521V34.6461Z" fill="#FF3157"/>
        <path d="M78.0352 34.646C78.6558 34.3822 79.0803 33.4259 79.0803 32.2718V12.3547C79.0803 11.1676 78.6558 10.2113 78.0352 9.9805V9.91455H84.012V25.9955L90.7399 20.6865C91.9483 19.7302 92.6342 19.3785 91.589 18.8508V18.7519H96.1941V18.8508C93.9732 19.5433 92.5688 20.9942 91.5564 21.7856L89.6621 23.2695L94.5611 32.2718C95.0837 33.2281 96.0308 34.3822 96.684 34.646V34.712H89.0416V34.646C89.6948 34.3822 89.5641 33.1951 89.0416 32.2718L85.8409 26.3362L84.012 27.7871V32.2718C84.012 33.4259 84.4365 34.3822 85.0571 34.646V34.712H78.0352V34.646Z" fill="#FF3157"/>
    </g>
    <defs>
        <clipPath id="clip0_473_622">
            <rect width="118" height="44" fill="white"/>
        </clipPath>
    </defs>
</svg>