<svg width="26" height="27" viewBox="0 0 26 27" fill="none" xmlns="http://www.w3.org/2000/svg">
<g id="TikTok-Logo">
<path id="TikTok" fill-rule="evenodd" clip-rule="evenodd" d="M13.3384 3.36059C14.4329 3.34387 15.519 3.35222 16.6051 3.34387C16.6719 4.62217 17.1314 5.92552 18.0671 6.82782C19.0028 7.75522 20.3229 8.18132 21.6095 8.32334V11.6903C20.4064 11.6486 19.195 11.3979 18.1005 10.8799C17.6243 10.6627 17.1815 10.387 16.7471 10.1029C16.7387 12.5425 16.7555 14.9821 16.7304 17.4134C16.6636 18.583 16.2792 19.7444 15.6025 20.7052C14.5081 22.3093 12.6116 23.3536 10.665 23.3871C9.47029 23.4539 8.27558 23.1281 7.25632 22.5265C5.56872 21.5323 4.38235 19.711 4.20692 17.7559C4.1902 17.3382 4.18186 16.9204 4.19855 16.5111C4.34894 14.9236 5.13427 13.4031 6.35404 12.3671C7.74088 11.164 9.67913 10.5875 11.4921 10.93C11.5088 12.1666 11.4587 13.4031 11.4587 14.6396C10.6315 14.3722 9.66244 14.4474 8.93559 14.9487C8.40925 15.2913 8.00824 15.8176 7.79938 16.4108C7.62392 16.8369 7.67405 17.3048 7.6824 17.7559C7.88292 19.1261 9.20293 20.2791 10.6065 20.1537C11.5422 20.1454 12.4362 19.6023 12.9207 18.8086C13.0794 18.5329 13.2549 18.2489 13.2632 17.923C13.3468 16.4275 13.3134 14.9404 13.3217 13.4448C13.3301 10.0778 13.3134 6.71922 13.3384 3.36059Z" fill="#751123"/>
</g>
</svg>
