<svg width="23" height="19" viewBox="0 0 23 19" fill="none" xmlns="http://www.w3.org/2000/svg">
<g id="Youtube">
<path id="Youtube_2" d="M11.2167 0.833618C12.1615 0.833618 13.1305 0.857928 14.0698 0.897708L15.1792 0.950748L16.2411 1.01373L17.2356 1.08114L18.1439 1.15186C19.1298 1.22688 20.0576 1.64738 20.7638 2.33929C21.4701 3.03121 21.9096 3.95015 22.0048 4.93427L22.049 5.4039L22.1319 6.40945C22.2092 7.45146 22.2667 8.5874 22.2667 9.67362C22.2667 10.7598 22.2092 11.8958 22.1319 12.9378L22.049 13.9433L22.0048 14.413C21.9095 15.3973 21.4699 16.3163 20.7634 17.0083C20.0569 17.7002 19.1289 18.1206 18.1428 18.1954L17.2367 18.265L16.2422 18.3335L15.1792 18.3965L14.0698 18.4495C13.1193 18.4907 12.1681 18.5121 11.2167 18.5136C10.2653 18.5121 9.31407 18.4907 8.36358 18.4495L7.25416 18.3965L6.19225 18.3335L5.19775 18.265L4.28944 18.1954C3.30358 18.1204 2.3758 17.6999 1.66954 17.0079C0.963269 16.316 0.523813 15.3971 0.428572 14.413L0.384372 13.9433L0.301497 12.9378C0.217332 11.8517 0.172366 10.7629 0.166687 9.67362C0.166687 8.5874 0.224147 7.45146 0.301497 6.40945L0.384372 5.4039L0.428572 4.93427C0.523776 3.95033 0.963073 3.03152 1.66911 2.33963C2.37516 1.64774 3.30267 1.22713 4.28834 1.15186L5.19554 1.08114L6.19004 1.01373L7.25305 0.950748L8.36247 0.897708C9.31333 0.856522 10.2649 0.835154 11.2167 0.833618ZM11.2167 3.04362C10.3051 3.04362 9.36692 3.06793 8.45419 3.1055L7.3735 3.15743L6.3359 3.21821L5.36129 3.28451L4.46845 3.35412C3.99904 3.38699 3.55648 3.58521 3.21943 3.91357C2.88237 4.24192 2.67265 4.67915 2.62752 5.14754C2.49824 6.48348 2.37669 8.14651 2.37669 9.67362C2.37669 11.2007 2.49824 12.8638 2.62752 14.1997C2.72145 15.1633 3.48611 15.9124 4.46845 15.9931L5.36129 16.0616L6.3359 16.1279L7.3735 16.1898L8.45419 16.2417C9.36692 16.2793 10.3051 16.3036 11.2167 16.3036C12.1283 16.3036 13.0665 16.2793 13.9792 16.2417L15.0599 16.1898L16.0975 16.129L17.0721 16.0627L17.9649 15.9931C18.4343 15.9603 18.8769 15.762 19.2139 15.4337C19.551 15.1053 19.7607 14.6681 19.8059 14.1997C19.9351 12.8638 20.0567 11.2007 20.0567 9.67362C20.0567 8.14651 19.9351 6.48348 19.8059 5.14754C19.7607 4.67915 19.551 4.24192 19.2139 3.91357C18.8769 3.58521 18.4343 3.38699 17.9649 3.35412L17.0721 3.28561L16.0975 3.21931L15.0599 3.15743L13.9792 3.1055C13.0589 3.066 12.1378 3.04537 11.2167 3.04362ZM9.00669 6.99399C9.00662 6.88599 9.03293 6.77961 9.08334 6.6841C9.13375 6.58859 9.20672 6.50684 9.29593 6.44595C9.38513 6.38507 9.48785 6.3469 9.59517 6.33476C9.70248 6.32262 9.81114 6.33688 9.91168 6.3763L10.0012 6.4205L14.6422 9.09902C14.7346 9.15234 14.8128 9.22718 14.8701 9.31719C14.9274 9.40719 14.9621 9.50969 14.9714 9.61599C14.9806 9.72229 14.964 9.82924 14.9231 9.92777C14.8821 10.0263 14.818 10.1135 14.7361 10.1819L14.6422 10.2482L10.0012 12.9278C9.90766 12.982 9.80232 13.0125 9.69432 13.0166C9.58633 13.0207 9.47896 12.9984 9.38157 12.9516C9.28417 12.9047 9.19971 12.8348 9.13552 12.7478C9.07134 12.6609 9.02939 12.5596 9.01332 12.4527L9.00669 12.3532V6.99399Z" fill="#751123"/>
</g>
</svg>
