<svg xmlns="http://www.w3.org/2000/svg" width="27" height="27" viewBox="0 0 27 27" fill="none">
    <path fill-rule="evenodd" clip-rule="evenodd" d="M26.0152 13.9208C26.0152 12.999 25.9324 12.1126 25.7788 11.2617H13.5352V16.2904H20.5315C20.2302 17.9154 19.3142 19.2922 17.9374 20.214V23.4758H22.1388C24.597 21.2126 26.0152 17.8799 26.0152 13.9208Z" fill="#BF0B2C"/>
    <path fill-rule="evenodd" clip-rule="evenodd" d="M13.5352 26.6253C17.0452 26.6253 19.988 25.4612 22.1389 23.4758L17.9375 20.214C16.7734 20.994 15.2843 21.4549 13.5352 21.4549C10.1493 21.4549 7.28342 19.1681 6.26115 16.0953H1.91797V19.4635C4.05706 23.7122 8.45342 26.6253 13.5352 26.6253Z" fill="#BF0B2C"/>
    <path fill-rule="evenodd" clip-rule="evenodd" d="M6.26107 16.0954C6.00107 15.3154 5.85334 14.4822 5.85334 13.6254C5.85334 12.7685 6.00107 11.9354 6.26107 11.1554V7.78717H1.91788C1.03743 9.54217 0.535156 11.5276 0.535156 13.6254C0.535156 15.7231 1.03743 17.7085 1.91788 19.4635L6.26107 16.0954Z" fill="#BF0B2C"/>
    <path fill-rule="evenodd" clip-rule="evenodd" d="M13.5352 5.79582C15.4439 5.79582 17.1575 6.45173 18.5048 7.73991L22.2334 4.01128C19.9821 1.91355 17.0393 0.625366 13.5352 0.625366C8.45342 0.625366 4.05706 3.53855 1.91797 7.78718L6.26115 11.1554C7.28342 8.08264 10.1493 5.79582 13.5352 5.79582Z" fill="#BF0B2C"/>
</svg>